<svg id="Layer_1" data-name="Layer 1" xmlns="http://www.w3.org/2000/svg" viewBox="0 0 283.3 97.43"><title>indava-logo__transparente</title><path d="M382.1,342.26l-1.06,5h-2.54l1.06-5-2.25-7.13h2.82l.84,3.31a7.64,7.64,0,0,1,.19.85q.05.35.09.7l.43-.67q.25-.41.55-.84l2.28-3.35h3Z" transform="translate(-254.03 -259.33)" fill="#1b2832"/><path d="M393.71,341.2a8.45,8.45,0,0,1-.31,2.3,6.18,6.18,0,0,1-1,2,4.86,4.86,0,0,1-1.63,1.41,4.79,4.79,0,0,1-2.31.53,3.2,3.2,0,0,1-2.35-.81,3.15,3.15,0,0,1-.82-2.34,7.39,7.39,0,0,1,.38-2.37,6.3,6.3,0,0,1,1-2,5,5,0,0,1,1.62-1.32,4.53,4.53,0,0,1,2.1-.49,3.4,3.4,0,0,1,2.38.78A2.9,2.9,0,0,1,393.71,341.2Zm-2.51,0a1.48,1.48,0,0,0-.28-1.05,1.11,1.11,0,0,0-.8-.27,1.3,1.3,0,0,0-1,.53,4.63,4.63,0,0,0-.72,1.27,8.08,8.08,0,0,0-.43,1.53,7.76,7.76,0,0,0-.14,1.3,1.29,1.29,0,0,0,.3.94,1.08,1.08,0,0,0,.8.3,1.33,1.33,0,0,0,1-.46,3.76,3.76,0,0,0,.72-1.16,7.57,7.57,0,0,0,.44-1.48A7.85,7.85,0,0,0,391.2,341.2Z" transform="translate(-254.03 -259.33)" fill="#1b2832"/><path d="M402.09,344.93a3.59,3.59,0,0,0,0,1,1.9,1.9,0,0,0,.24.84l-2,.8A2.74,2.74,0,0,1,400,347a2.71,2.71,0,0,1-.15-.63,5.44,5.44,0,0,1-1.15.78,3.08,3.08,0,0,1-1.43.33,2.4,2.4,0,0,1-1.61-.49,1.66,1.66,0,0,1-.57-1.32c0-.16,0-.36,0-.58a7.94,7.94,0,0,1,.14-.83l1.2-5.72,2.41-.44-1.22,5.73a6,6,0,0,0-.13.68,4.22,4.22,0,0,0,0,.52.7.7,0,0,0,.17.49.51.51,0,0,0,.38.19,1.33,1.33,0,0,0,.55-.13,3.06,3.06,0,0,0,.55-.32,3,3,0,0,0,.47-.43,4,4,0,0,0,.35-.44l1.24-5.8,2.35-.47Z" transform="translate(-254.03 -259.33)" fill="#1b2832"/><path d="M410.19,340.36a1.32,1.32,0,0,0-.68-.17,1.43,1.43,0,0,0-.75.25,4,4,0,0,0-.94,1l-1.24,5.84h-2.34l1.25-5.89a6.23,6.23,0,0,0,.18-1.44,3.63,3.63,0,0,0-.15-1l2.16-.85a2.83,2.83,0,0,1,.18.64,2.48,2.48,0,0,1,0,.8,6.15,6.15,0,0,1,1.21-1,2.44,2.44,0,0,1,1.28-.37,1.47,1.47,0,0,1,.8.19Z" transform="translate(-254.03 -259.33)" fill="#1b2832"/><path d="M423.45,338.74l-.06.19-.1.31q-.05.17-.1.36l-.08.32-1,4.58q-.14.66-.24,1.17c-.06.34-.12.64-.16.92s-.08.52-.11.73-.08.42-.12.62a3.56,3.56,0,0,1-.67,1.51,3.75,3.75,0,0,1-1.12,1,4.77,4.77,0,0,1-1.41.51,8.25,8.25,0,0,1-1.55.15,6.5,6.5,0,0,1-1.7-.22,5.55,5.55,0,0,1-1.42-.58l.8-1.57a3.67,3.67,0,0,0,1.09.46,5.65,5.65,0,0,0,1.42.17,2.51,2.51,0,0,0,1.52-.42,1.84,1.84,0,0,0,.72-1.12l.12-.55a5.25,5.25,0,0,1,.14-.51,3.1,3.1,0,0,1-.92.55,2.81,2.81,0,0,1-1,.2,2.67,2.67,0,0,1-2.13-.75,3.49,3.49,0,0,1-.65-2.32,7.91,7.91,0,0,1,.12-1.36,7.1,7.1,0,0,1,.38-1.35,8,8,0,0,1,.61-1.25,5.14,5.14,0,0,1,.83-1,4.8,4.8,0,0,1,1.43-.92,4.58,4.58,0,0,1,1.81-.35,12.45,12.45,0,0,1,2,.13A6.17,6.17,0,0,1,423.45,338.74Zm-2.74,1.45a1,1,0,0,0-.4-.16,2.92,2.92,0,0,0-.58-.05,1.79,1.79,0,0,0-.79.23,2,2,0,0,0-.69.54,4.21,4.21,0,0,0-.44.78,6.76,6.76,0,0,0-.34.93,7.29,7.29,0,0,0-.21,1,6.37,6.37,0,0,0-.07.91,1.77,1.77,0,0,0,.24,1,.79.79,0,0,0,.7.36,1.12,1.12,0,0,0,.47-.11,2.3,2.3,0,0,0,.47-.3,3.19,3.19,0,0,0,.4-.38,2.28,2.28,0,0,0,.28-.39Z" transform="translate(-254.03 -259.33)" fill="#1b2832"/><path d="M432.71,341.2a8.45,8.45,0,0,1-.31,2.3,6.17,6.17,0,0,1-1,2,4.85,4.85,0,0,1-1.63,1.41,4.79,4.79,0,0,1-2.31.53,3.2,3.2,0,0,1-2.35-.81,3.15,3.15,0,0,1-.82-2.34,7.39,7.39,0,0,1,.38-2.37,6.31,6.31,0,0,1,1-2,5,5,0,0,1,1.62-1.32,4.53,4.53,0,0,1,2.1-.49,3.4,3.4,0,0,1,2.38.78A2.9,2.9,0,0,1,432.71,341.2Zm-2.51,0a1.48,1.48,0,0,0-.28-1.05,1.11,1.11,0,0,0-.8-.27,1.3,1.3,0,0,0-1,.53,4.65,4.65,0,0,0-.72,1.27,8.11,8.11,0,0,0-.43,1.53,7.82,7.82,0,0,0-.14,1.3,1.28,1.28,0,0,0,.3.94,1.08,1.08,0,0,0,.8.3,1.33,1.33,0,0,0,1-.46,3.75,3.75,0,0,0,.72-1.16,7.57,7.57,0,0,0,.44-1.48A7.93,7.93,0,0,0,430.2,341.2Z" transform="translate(-254.03 -259.33)" fill="#1b2832"/><path d="M442.35,338.76c0,.14-.1.3-.15.48l-.16.57q-.08.3-.15.59c0,.2-.09.38-.12.56l-.71,3.38a3.24,3.24,0,0,0-.07.66,1.58,1.58,0,0,0,.4,1.08l-1.93,1.45A1.35,1.35,0,0,1,439,347a2.29,2.29,0,0,1-.21-.58,3.74,3.74,0,0,1-1.07.79,3,3,0,0,1-1.3.27,2.29,2.29,0,0,1-1.84-.72,3.17,3.17,0,0,1-.62-2.12,7.86,7.86,0,0,1,.54-3,6.32,6.32,0,0,1,1.34-2.14,4.59,4.59,0,0,1,1.59-1.06,5.42,5.42,0,0,1,2-.33,9.4,9.4,0,0,1,1.59.14A4,4,0,0,1,442.35,338.76Zm-2.65,1.34a1,1,0,0,0-.28-.1,1.63,1.63,0,0,0-.35,0l-.41,0a1.36,1.36,0,0,0-.39.1,2.09,2.09,0,0,0-.4.23,2.33,2.33,0,0,0-.44.43,3.13,3.13,0,0,0-.48.8,7.33,7.33,0,0,0-.34,1,8,8,0,0,0-.21,1.05,7.46,7.46,0,0,0-.07,1,1.74,1.74,0,0,0,.17.88.59.59,0,0,0,.55.27,1.25,1.25,0,0,0,.55-.13,2.18,2.18,0,0,0,.5-.33,3,3,0,0,0,.41-.44,1.88,1.88,0,0,0,.27-.49Z" transform="translate(-254.03 -259.33)" fill="#1b2832"/><path d="M447.68,334.24a2.53,2.53,0,0,1,0,.28c0,.12,0,.25,0,.4s0,.62,0,1a8.31,8.31,0,0,1-.17,1.11l-1.41,6.6q-.17.78-.24,1.16a3.93,3.93,0,0,0-.06.57c0,.34.15.5.45.5a.74.74,0,0,0,.26,0l.1,1.39a4.06,4.06,0,0,1-1.45.24,1.9,1.9,0,0,1-1.39-.45,1.56,1.56,0,0,1-.45-1.15,4.32,4.32,0,0,1,.08-.69c.05-.3.11-.61.18-.93l1.41-6.66c.09-.41.16-.77.21-1.09a6,6,0,0,0,.07-.86,2.45,2.45,0,0,0-.07-.63Z" transform="translate(-254.03 -259.33)" fill="#1b2832"/><path d="M454.88,340.45a4.25,4.25,0,0,0-1.13-.48,4.45,4.45,0,0,0-1-.13,1.86,1.86,0,0,0-.95.22.75.75,0,0,0-.37.71q0,.56.94.89l1,.37a4.08,4.08,0,0,1,.65.31,2.58,2.58,0,0,1,.57.45,2.24,2.24,0,0,1,.4.61,1.89,1.89,0,0,1,.16.78,3.19,3.19,0,0,1-.26,1.27,2.9,2.9,0,0,1-.8,1.07,4,4,0,0,1-1.34.73,6,6,0,0,1-1.9.27,6.11,6.11,0,0,1-1.85-.27,7.73,7.73,0,0,1-1.62-.72l.94-1.71a3.85,3.85,0,0,0,.6.36,5.52,5.52,0,0,0,.71.29,6.67,6.67,0,0,0,.78.2,4,4,0,0,0,.78.08,1.48,1.48,0,0,0,1-.33,1,1,0,0,0,.4-.78.59.59,0,0,0-.29-.53,4.15,4.15,0,0,0-.84-.37l-1-.35a2.69,2.69,0,0,1-1.17-.78,2.15,2.15,0,0,1-.47-1.46A2.92,2.92,0,0,1,449,340a2.56,2.56,0,0,1,.72-1,3.76,3.76,0,0,1,1.27-.69,5.89,5.89,0,0,1,1.87-.26,5.66,5.66,0,0,1,1.64.23,5.42,5.42,0,0,1,1.31.58Z" transform="translate(-254.03 -259.33)" fill="#1b2832"/><path d="M471.87,339.33a9.95,9.95,0,0,1-1.08,4.47,8.15,8.15,0,0,1-1.26,1.82,5.37,5.37,0,0,1-1.67,1.24,6.26,6.26,0,0,1-2.74.58,5.05,5.05,0,0,1-1.92-.32,3.33,3.33,0,0,1-1.28-.9,3.56,3.56,0,0,1-.72-1.38,6.37,6.37,0,0,1-.23-1.74,9.65,9.65,0,0,1,.28-2.39,9.21,9.21,0,0,1,.74-2,8.17,8.17,0,0,1,1-1.56,6.47,6.47,0,0,1,1.17-1.09q.26-.19.59-.39a4.42,4.42,0,0,1,.76-.36,5.56,5.56,0,0,1,1-.25,7.18,7.18,0,0,1,1.24-.1,3.93,3.93,0,0,1,3.06,1.16A4.58,4.58,0,0,1,471.87,339.33Zm-2.74-.5a2.31,2.31,0,0,0-.41-1.43,1.66,1.66,0,0,0-1.4-.54,2.57,2.57,0,0,0-1.18.29,2.66,2.66,0,0,0-.93.78,5.22,5.22,0,0,0-.66,1.17,11.37,11.37,0,0,0-.51,1.46,13,13,0,0,0-.32,1.53,9.41,9.41,0,0,0-.11,1.38,2.25,2.25,0,0,0,.48,1.64,1.92,1.92,0,0,0,1.4.47,2.85,2.85,0,0,0,1-.2,2.31,2.31,0,0,0,.93-.71,5.51,5.51,0,0,0,.7-1.22,11.36,11.36,0,0,0,.53-1.55,13.8,13.8,0,0,0,.33-1.63A10.57,10.57,0,0,0,469.13,338.83Z" transform="translate(-254.03 -259.33)" fill="#1b2832"/><path d="M479.87,344.93a3.59,3.59,0,0,0,0,1,1.9,1.9,0,0,0,.24.84l-2,.8a2.74,2.74,0,0,1-.27-.56,2.71,2.71,0,0,1-.15-.63,5.44,5.44,0,0,1-1.15.78,3.08,3.08,0,0,1-1.43.33,2.4,2.4,0,0,1-1.61-.49,1.66,1.66,0,0,1-.57-1.32,5.81,5.81,0,0,1,0-.58,7.56,7.56,0,0,1,.14-.83l1.2-5.72,2.41-.44-1.22,5.73a6,6,0,0,0-.13.68,4.22,4.22,0,0,0,0,.52.7.7,0,0,0,.17.49.51.51,0,0,0,.38.19,1.33,1.33,0,0,0,.55-.13,3.06,3.06,0,0,0,.55-.32,3,3,0,0,0,.47-.43,4,4,0,0,0,.35-.44l1.24-5.8,2.35-.47Z" transform="translate(-254.03 -259.33)" fill="#1b2832"/><path d="M488,340.36a1.32,1.32,0,0,0-.68-.17,1.43,1.43,0,0,0-.75.25,4,4,0,0,0-.94,1l-1.24,5.84H482l1.25-5.89a6.23,6.23,0,0,0,.18-1.44,3.63,3.63,0,0,0-.15-1l2.16-.85a2.83,2.83,0,0,1,.18.64,2.48,2.48,0,0,1,0,.8,6.15,6.15,0,0,1,1.21-1,2.44,2.44,0,0,1,1.28-.37,1.47,1.47,0,0,1,.8.19Z" transform="translate(-254.03 -259.33)" fill="#1b2832"/><path d="M499,336.3A2.06,2.06,0,0,0,498,336a1.19,1.19,0,0,0-.78.26,1.26,1.26,0,0,0-.43.75l-.26,1.27h2.27l-.94,1.6h-1.59l-1.43,7.32a6.33,6.33,0,0,1-.36,1.2,7.34,7.34,0,0,1-.54,1.07,7.82,7.82,0,0,1-.65.92,6.82,6.82,0,0,1-.68.71l-1.43-1.29a3.39,3.39,0,0,0,.38-.48q.21-.3.4-.65a6,6,0,0,0,.34-.73,4.35,4.35,0,0,0,.22-.75l1.46-7.32h-.87l.35-1.6h.82q0-.28.06-.6a6.15,6.15,0,0,1,.11-.62,3.29,3.29,0,0,1,1.21-2.11,3.81,3.81,0,0,1,2.29-.66,3.89,3.89,0,0,1,1.11.16,3,3,0,0,1,.88.4Z" transform="translate(-254.03 -259.33)" fill="#1b2832"/><path d="M506.51,341.2a8.45,8.45,0,0,1-.31,2.3,6.17,6.17,0,0,1-1,2,4.85,4.85,0,0,1-1.63,1.41,4.79,4.79,0,0,1-2.31.53,3.2,3.2,0,0,1-2.35-.81,3.15,3.15,0,0,1-.82-2.34,7.39,7.39,0,0,1,.38-2.37,6.31,6.31,0,0,1,1-2,5,5,0,0,1,1.62-1.32,4.53,4.53,0,0,1,2.1-.49,3.4,3.4,0,0,1,2.38.78A2.9,2.9,0,0,1,506.51,341.2Zm-2.51,0a1.48,1.48,0,0,0-.28-1.05,1.11,1.11,0,0,0-.8-.27,1.3,1.3,0,0,0-1,.53,4.65,4.65,0,0,0-.72,1.27,8.11,8.11,0,0,0-.43,1.53,7.82,7.82,0,0,0-.14,1.3,1.28,1.28,0,0,0,.3.94,1.08,1.08,0,0,0,.8.3,1.33,1.33,0,0,0,1-.46,3.75,3.75,0,0,0,.72-1.16,7.57,7.57,0,0,0,.44-1.48A7.93,7.93,0,0,0,504,341.2Z" transform="translate(-254.03 -259.33)" fill="#1b2832"/><path d="M514,340.59a2.06,2.06,0,0,0-.64-.5,1.58,1.58,0,0,0-.68-.17,1.44,1.44,0,0,0-1.1.52,3.43,3.43,0,0,0-.47.73,6.26,6.26,0,0,0-.39,1,10.13,10.13,0,0,0-.27,1.12,6.08,6.08,0,0,0-.1,1.1,1.44,1.44,0,0,0,.3,1,1,1,0,0,0,.77.31,2.12,2.12,0,0,0,1-.24,5.94,5.94,0,0,0,1-.65l.78,1.45a6.51,6.51,0,0,1-1.51.87,4.69,4.69,0,0,1-1.77.31,3,3,0,0,1-2.28-.81,3.11,3.11,0,0,1-.78-2.26,7,7,0,0,1,.18-1.61,8.39,8.39,0,0,1,.49-1.46,6.65,6.65,0,0,1,.71-1.25,5.64,5.64,0,0,1,.88-1,4.94,4.94,0,0,1,1.3-.78,4.33,4.33,0,0,1,1.63-.28,3.37,3.37,0,0,1,1.25.25,2.92,2.92,0,0,1,1.12.81Z" transform="translate(-254.03 -259.33)" fill="#1b2832"/><path d="M522.6,344.93a3.59,3.59,0,0,0,0,1,1.9,1.9,0,0,0,.24.84l-2,.8a2.74,2.74,0,0,1-.27-.56,2.71,2.71,0,0,1-.15-.63,5.44,5.44,0,0,1-1.15.78,3.08,3.08,0,0,1-1.43.33,2.4,2.4,0,0,1-1.61-.49,1.66,1.66,0,0,1-.57-1.32,5.81,5.81,0,0,1,0-.58,7.56,7.56,0,0,1,.14-.83l1.2-5.72,2.41-.44-1.22,5.73a6,6,0,0,0-.13.68,4.22,4.22,0,0,0,0,.52.7.7,0,0,0,.17.49.51.51,0,0,0,.38.19,1.33,1.33,0,0,0,.55-.13,3.06,3.06,0,0,0,.55-.32,3,3,0,0,0,.47-.43,4,4,0,0,0,.35-.44l1.24-5.8,2.35-.47Z" transform="translate(-254.03 -259.33)" fill="#1b2832"/><path d="M531.52,340.45a4.25,4.25,0,0,0-1.13-.48,4.45,4.45,0,0,0-1-.13,1.86,1.86,0,0,0-.95.22.75.75,0,0,0-.37.71q0,.56.94.89l1,.37a4.08,4.08,0,0,1,.65.31,2.58,2.58,0,0,1,.57.45,2.24,2.24,0,0,1,.4.61,1.89,1.89,0,0,1,.16.78,3.19,3.19,0,0,1-.26,1.27,2.9,2.9,0,0,1-.8,1.07,4,4,0,0,1-1.34.73,6,6,0,0,1-1.9.27,6.11,6.11,0,0,1-1.85-.27,7.73,7.73,0,0,1-1.62-.72l.94-1.71a3.85,3.85,0,0,0,.6.36,5.52,5.52,0,0,0,.71.29,6.67,6.67,0,0,0,.78.2,4,4,0,0,0,.78.08,1.48,1.48,0,0,0,1-.33,1,1,0,0,0,.4-.78.59.59,0,0,0-.29-.53,4.15,4.15,0,0,0-.84-.37l-1-.35a2.69,2.69,0,0,1-1.17-.78,2.15,2.15,0,0,1-.47-1.46,2.92,2.92,0,0,1,.23-1.12,2.56,2.56,0,0,1,.72-1,3.76,3.76,0,0,1,1.27-.69,5.89,5.89,0,0,1,1.87-.26,5.66,5.66,0,0,1,1.64.23,5.42,5.42,0,0,1,1.31.58Z" transform="translate(-254.03 -259.33)" fill="#1b2832"/><path d="M536.09,346a1.53,1.53,0,0,1-.12.6,1.55,1.55,0,0,1-.33.5,1.6,1.6,0,0,1-.49.33,1.52,1.52,0,0,1-1.68-.33A1.51,1.51,0,0,1,533,346a1.52,1.52,0,0,1,1.52-1.52,1.51,1.51,0,0,1,1.1.44A1.45,1.45,0,0,1,536.09,346Z" transform="translate(-254.03 -259.33)" fill="#1b2832"/><path d="M339.1,325.08V273.15H350v51.93Z" transform="translate(-254.03 -259.33)" fill="#1b2832"/><path d="M379.3,325.08V300.2a9.44,9.44,0,0,0-.71-4.45,2.86,2.86,0,0,0-2.65-1.16,7.66,7.66,0,0,0-3.36.93A15.84,15.84,0,0,0,369,298v27H359V297.36a32.5,32.5,0,0,0-.34-4.74,23.26,23.26,0,0,0-1-4.22l8.89-2.54a9.59,9.59,0,0,1,1.42,4.78q1.12-.82,2.13-1.49a26.13,26.13,0,0,1,2.28-1.35,12.59,12.59,0,0,1,3.32-1.23,16.24,16.24,0,0,1,3.55-.41,10.94,10.94,0,0,1,5.75,1.53,7.72,7.72,0,0,1,3.44,4,16.16,16.16,0,0,1,.75,5.45v27.95Z" transform="translate(-254.03 -259.33)" fill="#1b2832"/><path d="M421.14,325.08a7.84,7.84,0,0,1-.6-2.24,12.91,12.91,0,0,1-8.82,3.21,15.16,15.16,0,0,1-6.58-1.38,14.24,14.24,0,0,1-5-3.88,17.87,17.87,0,0,1-3.18-6.09,27,27,0,0,1-1.12-8.07,26.5,26.5,0,0,1,1.2-8.18,19.73,19.73,0,0,1,3.36-6.39,14.67,14.67,0,0,1,11.81-5.6,10.5,10.5,0,0,1,6.8,2.17,13.56,13.56,0,0,1-.22-2.28q-.08-1.68-.08-3.4V269.79l9.94,1.57v39.75q0,3.51.11,5.94t.34,4a19.9,19.9,0,0,0,.49,2.54,12.11,12.11,0,0,0,.49,1.46Zm-2.24-28.17a8.51,8.51,0,0,0-5.45-2.47,5.14,5.14,0,0,0-4.89,2.91Q407,300.27,407,306.7a33.17,33.17,0,0,0,.34,5.16,8.69,8.69,0,0,0,1.16,3.36,4.67,4.67,0,0,0,2.17,1.83,8.56,8.56,0,0,0,3.29.56,5.62,5.62,0,0,0,2.8-.79,7.64,7.64,0,0,0,2.13-1.68Z" transform="translate(-254.03 -259.33)" fill="#1b2832"/><path d="M463.21,327a13.42,13.42,0,0,1-3.17-1.94,8.23,8.23,0,0,1-2.2-2.69q-.6.6-1.16,1.12a7.57,7.57,0,0,1-1.16.9,12.92,12.92,0,0,1-7.7,2.09q-6.43,0-9.79-3.1t-3.36-8.85q0-6.8,4.59-10t13.79-3.18h1.12a9.18,9.18,0,0,1,1.12.07V299.9q0-3.21-.86-4.45t-3.62-1.23a13.77,13.77,0,0,0-5.16,1.12,33.49,33.49,0,0,0-5.9,3.21l-4.26-7.17a29.46,29.46,0,0,1,2.84-1.64q1.34-.67,3.36-1.49a29.42,29.42,0,0,1,5.34-1.72,25,25,0,0,1,5.12-.52,16.76,16.76,0,0,1,8,1.72,8.77,8.77,0,0,1,4.3,4.93,7.56,7.56,0,0,1,.34,1.16q.11.56.22,1.31a12.24,12.24,0,0,1,.11,1.79v2.62l-.22,12.85q0,1.57.08,2.73a7.12,7.12,0,0,0,.45,2.13,6.54,6.54,0,0,0,1.08,1.83,12,12,0,0,0,2,1.83Zm-8.52-18.68q-5.23,0-7.29,1.2t-2.05,4.63a5.24,5.24,0,0,0,1.23,3.62,4.06,4.06,0,0,0,3.18,1.38,6.11,6.11,0,0,0,2.76-.67,8.17,8.17,0,0,0,2.47-1.94l.15-8.22Z" transform="translate(-254.03 -259.33)" fill="#1b2832"/><path d="M489.89,325.08h-8.29l-13.9-37.66,10.24-1.27,5.53,17.26q.3,1,.63,2.17t.67,2.47q.34,1.27.63,2.47l.52,2.09q.22-1.72.82-4.3t1.5-5.42l5.16-16.06h10.46Z" transform="translate(-254.03 -259.33)" fill="#1b2832"/><path d="M532,327a13.42,13.42,0,0,1-3.17-1.94,8.23,8.23,0,0,1-2.2-2.69q-.6.6-1.16,1.12a7.57,7.57,0,0,1-1.16.9,12.92,12.92,0,0,1-7.7,2.09q-6.43,0-9.79-3.1t-3.36-8.85q0-6.8,4.59-10t13.79-3.18H523a9.18,9.18,0,0,1,1.12.07V299.9q0-3.21-.86-4.45t-3.62-1.23a13.77,13.77,0,0,0-5.16,1.12,33.49,33.49,0,0,0-5.9,3.21l-4.26-7.17a29.46,29.46,0,0,1,2.84-1.64q1.34-.67,3.36-1.49a29.42,29.42,0,0,1,5.34-1.72A25,25,0,0,1,521,286a16.76,16.76,0,0,1,8,1.72,8.77,8.77,0,0,1,4.3,4.93,7.56,7.56,0,0,1,.34,1.16q.11.56.22,1.31a12.24,12.24,0,0,1,.11,1.79v2.62l-.22,12.85q0,1.57.08,2.73a7.12,7.12,0,0,0,.45,2.13,6.54,6.54,0,0,0,1.08,1.83,12,12,0,0,0,2,1.83Zm-8.52-18.68q-5.23,0-7.29,1.2t-2.05,4.63a5.24,5.24,0,0,0,1.23,3.62,4.06,4.06,0,0,0,3.18,1.38,6.11,6.11,0,0,0,2.76-.67,8.17,8.17,0,0,0,2.47-1.94l.15-8.22Z" transform="translate(-254.03 -259.33)" fill="#1b2832"/><path d="M279.68,273.82c-4.14,1.2-24.24,3.43-25.62,32.18-.26,9.69,1.22,43.54.38,50.44,5.44-.17,23.06.44,43.19.31,25.25-1.75,30.88-24,30.88-34.12,0-3-.33-49.31-.33-49.31H302.58l.06,18.94,6.13-.08s.29,32.91.28,34.42c0,3.09-5.53,11-11.44,10.84l-24.62.09s0-33.91.75-37,4.79-6.23,5.15-6.6a2.86,2.86,0,0,0,.9-2.27C280,286.85,279.68,276.3,279.68,273.82Z" transform="translate(-254.03 -259.33)" fill="#053962"/><path d="M285.5,259.33h11.33l0,61.46h-9.12s-2.17-.71-2.17-3.83Z" transform="translate(-254.03 -259.33)" fill="#053962"/></svg>